QuixoticSeven-Italic.ufo
<glyph name="exclam" format="2">
  <advance width="583"/>
  <unicode hex="0021"/>
  <outline>
    <contour>
      <point x="536.0" y="0.0" type="curve" smooth="yes"/>
      <point x="535.0" y="26.0"/>
      <point x="554.0" y="48.0"/>
      <point x="580.0" y="48.0" type="curve" smooth="yes"/>
      <point x="606.0" y="48.0"/>
      <point x="629.0" y="26.0"/>
      <point x="630.0" y="0.0" type="curve" smooth="yes"/>
      <point x="631.0" y="-26.0"/>
      <point x="612.0" y="-48.0"/>
      <point x="586.0" y="-48.0" type="curve" smooth="yes"/>
      <point x="560.0" y="-48.0"/>
      <point x="537.0" y="-26.0"/>
    </contour>
    <contour>
      <point x="470.0" y="52.0" type="line" smooth="yes"/>
      <point x="430.0" y="90.0" type="line" smooth="yes"/>
      <point x="417.0" y="348.0" type="line" smooth="yes"/>
      <point x="453.0" y="386.0" type="line" smooth="yes"/>
      <point x="493.0" y="348.0" type="line" smooth="yes"/>
      <point x="506.0" y="90.0" type="line" smooth="yes"/>
    </contour>
    <contour>
      <point x="451.0" y="414.0" type="line" smooth="yes"/>
      <point x="411.0" y="452.0" type="line" smooth="yes"/>
      <point x="398.0" y="710.0" type="line" smooth="yes"/>
      <point x="434.0" y="748.0" type="line" smooth="yes"/>
      <point x="474.0" y="710.0" type="line" smooth="yes"/>
      <point x="487.0" y="452.0" type="line" smooth="yes"/>
    </contour>
  </outline>
</glyph>
<glyph name="quotedbl" format="2">
  <advance width="583"/>
  <unicode hex="0022"/>
  <outline>
    <contour>
      <point x="132.0" y="414.0" type="line" smooth="yes"/>
      <point x="96.0" y="452.0" type="line" smooth="yes"/>
      <point x="109.0" y="710.0" type="line" smooth="yes"/>
      <point x="149.0" y="748.0" type="line" smooth="yes"/>
      <point x="185.0" y="710.0" type="line" smooth="yes"/>
      <point x="172.0" y="452.0" type="line" smooth="yes"/>
    </contour>
    <contour>
      <point x="495.0" y="414.0" type="line" smooth="yes"/>
      <point x="459.0" y="452.0" type="line" smooth="yes"/>
      <point x="472.0" y="710.0" type="line" smooth="yes"/>
      <point x="512.0" y="748.0" type="line" smooth="yes"/>
      <point x="548.0" y="710.0" type="line" smooth="yes"/>
      <point x="535.0" y="452.0" type="line" smooth="yes"/>
    </contour>
  </outline>
</glyph>
<glyph name="percent" format="2">
  <advance width="583"/>
  <unicode hex="0025"/>
  <outline>
    <contour>
      <point x="488.0" y="0.0" type="curve" smooth="yes"/>
      <point x="489.0" y="26.0"/>
      <point x="510.0" y="48.0"/>
      <point x="534.0" y="48.0" type="curve" smooth="yes"/>
      <point x="558.0" y="48.0"/>
      <point x="576.0" y="26.0"/>
      <point x="575.0" y="0.0" type="curve" smooth="yes"/>
      <point x="574.0" y="-26.0"/>
      <point x="553.0" y="-48.0"/>
      <point x="529.0" y="-48.0" type="curve" smooth="yes"/>
      <point x="505.0" y="-48.0"/>
      <point x="487.0" y="-26.0"/>
    </contour>
    <contour>
      <point x="134.0" y="400.0" type="line" smooth="yes"/>
      <point x="171.0" y="438.0" type="line" smooth="yes"/>
      <point x="412.0" y="438.0" type="line" smooth="yes"/>
      <point x="445.0" y="400.0" type="line" smooth="yes"/>
      <point x="408.0" y="362.0" type="line" smooth="yes"/>
      <point x="167.0" y="362.0" type="line" smooth="yes"/>
    </contour>
    <contour>
      <point x="104.0" y="52.0" type="line" smooth="yes"/>
      <point x="70.0" y="90.0" type="line" smooth="yes"/>
      <point x="84.0" y="348.0" type="line" smooth="yes"/>
      <point x="121.0" y="386.0" type="line" smooth="yes"/>
      <point x="154.0" y="348.0" type="line" smooth="yes"/>
      <point x="141.0" y="90.0" type="line" smooth="yes"/>
    </contour>
    <contour>
      <point x="453.0" y="414.0" type="line" smooth="yes"/>
      <point x="420.0" y="452.0" type="line" smooth="yes"/>
      <point x="433.0" y="710.0" type="line" smooth="yes"/>
      <point x="470.0" y="748.0" type="line" smooth="yes"/>
      <point x="504.0" y="710.0" type="line" smooth="yes"/>
      <point x="490.0" y="452.0" type="line" smooth="yes"/>
    </contour>
  </outline>
</glyph>
<glyph name="quotesingle" format="2">
  <advance width="583"/>
  <unicode hex="0027"/>
  <outline>
    <contour>
      <point x="88.0" y="414.0" type="line" smooth="yes"/>
      <point x="48.0" y="452.0" type="line" smooth="yes"/>
      <point x="35.0" y="710.0" type="line" smooth="yes"/>
      <point x="71.0" y="748.0" type="line" smooth="yes"/>
      <point x="111.0" y="710.0" type="line" smooth="yes"/>
      <point x="124.0" y="452.0" type="line" smooth="yes"/>
    </contour>
  </outline>
</glyph>
<glyph name="parenright" format="2">
  <advance width="583"/>
  <unicode hex="0029"/>
  <outline>
    <contour>
      <point x="126.0" y="38.0" type="line" smooth="yes"/>
      <point x="166.0" y="76.0" type="line" smooth="yes"/>
      <point x="425.0" y="76.0" type="line" smooth="yes"/>
      <point x="461.0" y="38.0" type="line" smooth="yes"/>
      <point x="421.0" y="0.0" type="line" smooth="yes"/>
      <point x="162.0" y="0.0" type="line" smooth="yes"/>
    </contour>
    <contour>
      <point x="476.0" y="52.0" type="line" smooth="yes"/>
      <point x="440.0" y="90.0" type="line" smooth="yes"/>
      <point x="453.0" y="348.0" type="line" smooth="yes"/>
      <point x="493.0" y="386.0" type="line" smooth="yes"/>
      <point x="529.0" y="348.0" type="line" smooth="yes"/>
      <point x="516.0" y="90.0" type="line" smooth="yes"/>
    </contour>
    <contour>
      <point x="495.0" y="414.0" type="line" smooth="yes"/>
      <point x="459.0" y="452.0" type="line" smooth="yes"/>
      <point x="472.0" y="710.0" type="line" smooth="yes"/>
      <point x="512.0" y="748.0" type="line" smooth="yes"/>
      <point x="548.0" y="710.0" type="line" smooth="yes"/>
      <point x="535.0" y="452.0" type="line" smooth="yes"/>
    </contour>
    <contour>
      <point x="499.0" y="762.0" type="line" smooth="yes"/>
      <point x="459.0" y="724.0" type="line" smooth="yes"/>
      <point x="200.0" y="724.0" type="line" smooth="yes"/>
      <point x="164.0" y="762.0" type="line" smooth="yes"/>
      <point x="204.0" y="800.0" type="line" smooth="yes"/>
      <point x="463.0" y="800.0" type="line" smooth="yes"/>
    </contour>
  </outline>
</glyph>
<glyph name="asterisk" format="2">
  <advance width="583"/>
  <unicode hex="002A"/>
  <outline>
    <contour>
      <point x="132.0" y="414.0" type="line" smooth="yes"/>
      <point x="96.0" y="452.0" type="line" smooth="yes"/>
      <point x="109.0" y="710.0" type="line" smooth="yes"/>
      <point x="149.0" y="748.0" type="line" smooth="yes"/>
      <point x="185.0" y="710.0" type="line" smooth="yes"/>
      <point x="172.0" y="452.0" type="line" smooth="yes"/>
    </contour>
    <contour>
      <point x="499.0" y="762.0" type="line" smooth="yes"/>
      <point x="459.0" y="724.0" type="line" smooth="yes"/>
      <point x="200.0" y="724.0" type="line" smooth="yes"/>
      <point x="164.0" y="762.0" type="line" smooth="yes"/>
      <point x="204.0" y="800.0" type="line" smooth="yes"/>
      <point x="463.0" y="800.0" type="line" smooth="yes"/>
    </contour>
  </outline>
</glyph>
<glyph name="hyphen" format="2">
  <advance width="583"/>
  <unicode hex="002D"/>
  <outline>
    <contour>
      <point x="134.0" y="400.0" type="line" smooth="yes"/>
      <point x="171.0" y="438.0" type="line" smooth="yes"/>
      <point x="412.0" y="438.0" type="line" smooth="yes"/>
      <point x="445.0" y="400.0" type="line" smooth="yes"/>
      <point x="408.0" y="362.0" type="line" smooth="yes"/>
      <point x="167.0" y="362.0" type="line" smooth="yes"/>
    </contour>
  </outline>
</glyph>
<glyph name="period" format="2">
  <advance height="970"/>
  <unicode hex="002E"/>
  <outline>
    <contour>
      <point x="-47.0" y="-30.0" type="curve" smooth="yes"/>
      <point x="-47.0" y="-4.0"/>
      <point x="-26.0" y="18.0"/>
      <point x="0.0" y="18.0" type="curve" smooth="yes"/>
      <point x="26.0" y="18.0"/>
      <point x="47.0" y="-4.0"/>
      <point x="47.0" y="-30.0" type="curve" smooth="yes"/>
      <point x="47.0" y="-56.0"/>
      <point x="26.0" y="-78.0"/>
      <point x="0.0" y="-78.0" type="curve" smooth="yes"/>
      <point x="-26.0" y="-78.0"/>
      <point x="-47.0" y="-56.0"/>
    </contour>
  </outline>
</glyph>
<glyph name="zero" format="2">
  <advance width="583"/>
  <unicode hex="0030"/>
  <outline>
    <contour>
      <point x="123.0" y="414.0" type="line" smooth="yes"/>
      <point x="89.0" y="452.0" type="line" smooth="yes"/>
      <point x="103.0" y="710.0" type="line" smooth="yes"/>
      <point x="140.0" y="748.0" type="line" smooth="yes"/>
      <point x="173.0" y="710.0" type="line" smooth="yes"/>
      <point x="160.0" y="452.0" type="line" smooth="yes"/>
    </contour>
    <contour>
      <point x="104.0" y="52.0" type="line" smooth="yes"/>
      <point x="70.0" y="90.0" type="line" smooth="yes"/>
      <point x="84.0" y="348.0" type="line" smooth="yes"/>
      <point x="121.0" y="386.0" type="line" smooth="yes"/>
      <point x="154.0" y="348.0" type="line" smooth="yes"/>
      <point x="141.0" y="90.0" type="line" smooth="yes"/>
    </contour>
    <contour>
      <point x="115.0" y="38.0" type="line" smooth="yes"/>
      <point x="152.0" y="76.0" type="line" smooth="yes"/>
      <point x="393.0" y="76.0" type="line" smooth="yes"/>
      <point x="426.0" y="38.0" type="line" smooth="yes"/>
      <point x="389.0" y="0.0" type="line" smooth="yes"/>
      <point x="148.0" y="0.0" type="line" smooth="yes"/>
    </contour>
    <contour>
      <point x="434.0" y="52.0" type="line" smooth="yes"/>
      <point x="401.0" y="90.0" type="line" smooth="yes"/>
      <point x="414.0" y="348.0" type="line" smooth="yes"/>
      <point x="451.0" y="386.0" type="line" smooth="yes"/>
      <point x="485.0" y="348.0" type="line" smooth="yes"/>
      <point x="471.0" y="90.0" type="line" smooth="yes"/>
    </contour>
    <contour>
      <point x="453.0" y="414.0" type="line" smooth="yes"/>
      <point x="420.0" y="452.0" type="line" smooth="yes"/>
      <point x="433.0" y="710.0" type="line" smooth="yes"/>
      <point x="470.0" y="748.0" type="line" smooth="yes"/>
      <point x="504.0" y="710.0" type="line" smooth="yes"/>
      <point x="490.0" y="452.0" type="line" smooth="yes"/>
    </contour>
    <contour>
      <point x="464.0" y="762.0" type="line" smooth="yes"/>
      <point x="427.0" y="724.0" type="line" smooth="yes"/>
      <point x="186.0" y="724.0" type="line" smooth="yes"/>
      <point x="153.0" y="762.0" type="line" smooth="yes"/>
      <point x="190.0" y="800.0" type="line" smooth="yes"/>
      <point x="431.0" y="800.0" type="line" smooth="yes"/>
    </contour>
  </outline>
</glyph>
<glyph name="seven" format="2">
  <advance width="583"/>
  <unicode hex="0037"/>
  <outline>
    <contour>
      <point x="434.0" y="52.0" type="line" smooth="yes"/>
      <point x="401.0" y="90.0" type="line" smooth="yes"/>
      <point x="414.0" y="348.0" type="line" smooth="yes"/>
      <point x="451.0" y="386.0" type="line" smooth="yes"/>
      <point x="485.0" y="348.0" type="line" smooth="yes"/>
      <point x="471.0" y="90.0" type="line" smooth="yes"/>
    </contour>
    <contour>
      <point x="453.0" y="414.0" type="line" smooth="yes"/>
      <point x="420.0" y="452.0" type="line" smooth="yes"/>
      <point x="433.0" y="710.0" type="line" smooth="yes"/>
      <point x="470.0" y="748.0" type="line" smooth="yes"/>
      <point x="504.0" y="710.0" type="line" smooth="yes"/>
      <point x="490.0" y="452.0" type="line" smooth="yes"/>
    </contour>
    <contour>
      <point x="509.92578125" y="762.0" type="line" smooth="yes"/>
      <point x="472.92578125" y="724.0" type="line" smooth="yes"/>
      <point x="231.92578125" y="724.0" type="line" smooth="yes"/>
      <point x="198.92578125" y="762.0" type="line" smooth="yes"/>
      <point x="235.92578125" y="800.0" type="line" smooth="yes"/>
      <point x="476.92578125" y="800.0" type="line" smooth="yes"/>
    </contour>
  </outline>
</glyph>
<glyph name="nine" format="2">
  <advance width="583"/>
  <unicode hex="0039"/>
  <outline>
    <contour>
      <point x="134.0" y="400.0" type="line" smooth="yes"/>
      <point x="171.0" y="438.0" type="line" smooth="yes"/>
      <point x="412.0" y="438.0" type="line" smooth="yes"/>
      <point x="445.0" y="400.0" type="line" smooth="yes"/>
      <point x="408.0" y="362.0" type="line" smooth="yes"/>
      <point x="167.0" y="362.0" type="line" smooth="yes"/>
    </contour>
    <contour>
      <point x="123.0" y="414.0" type="line" smooth="yes"/>
      <point x="89.0" y="452.0" type="line" smooth="yes"/>
      <point x="103.0" y="710.0" type="line" smooth="yes"/>
      <point x="140.0" y="748.0" type="line" smooth="yes"/>
      <point x="173.0" y="710.0" type="line" smooth="yes"/>
      <point x="160.0" y="452.0" type="line" smooth="yes"/>
    </contour>
    <contour>
      <point x="115.0" y="38.0" type="line" smooth="yes"/>
      <point x="152.0" y="76.0" type="line" smooth="yes"/>
      <point x="393.0" y="76.0" type="line" smooth="yes"/>
      <point x="426.0" y="38.0" type="line" smooth="yes"/>
      <point x="389.0" y="0.0" type="line" smooth="yes"/>
      <point x="148.0" y="0.0" type="line" smooth="yes"/>
    </contour>
    <contour>
      <point x="434.0" y="52.0" type="line" smooth="yes"/>
      <point x="401.0" y="90.0" type="line" smooth="yes"/>
      <point x="414.0" y="348.0" type="line" smooth="yes"/>
      <point x="451.0" y="386.0" type="line" smooth="yes"/>
      <point x="485.0" y="348.0" type="line" smooth="yes"/>
      <point x="471.0" y="90.0" type="line" smooth="yes"/>
    </contour>
    <contour>
      <point x="453.0" y="414.0" type="line" smooth="yes"/>
      <point x="420.0" y="452.0" type="line" smooth="yes"/>
      <point x="433.0" y="710.0" type="line" smooth="yes"/>
      <point x="470.0" y="748.0" type="line" smooth="yes"/>
      <point x="504.0" y="710.0" type="line" smooth="yes"/>
      <point x="490.0" y="452.0" type="line" smooth="yes"/>
    </contour>
    <contour>
      <point x="509.92578125" y="762.0" type="line" smooth="yes"/>
      <point x="472.92578125" y="724.0" type="line" smooth="yes"/>
      <point x="231.92578125" y="724.0" type="line" smooth="yes"/>
      <point x="198.92578125" y="762.0" type="line" smooth="yes"/>
      <point x="235.92578125" y="800.0" type="line" smooth="yes"/>
      <point x="476.92578125" y="800.0" type="line" smooth="yes"/>
    </contour>
  </outline>
</glyph>
<glyph name="colon" format="2">
  <advance width="194"/>
  <unicode hex="003A"/>
  <outline>
    <contour>
      <point x="62.578125" y="240.0" type="curve" smooth="yes"/>
      <point x="62.578125" y="266.0"/>
      <point x="83.578125" y="288.0"/>
      <point x="109.578125" y="288.0" type="curve" smooth="yes"/>
      <point x="135.578125" y="288.0"/>
      <point x="156.578125" y="266.0"/>
      <point x="156.578125" y="240.0" type="curve" smooth="yes"/>
      <point x="156.578125" y="214.0"/>
      <point x="135.578125" y="192.0"/>
      <point x="109.578125" y="192.0" type="curve" smooth="yes"/>
      <point x="83.578125" y="192.0"/>
      <point x="62.578125" y="214.0"/>
    </contour>
    <contour>
      <point x="79.3486328125" y="560.0" type="curve" smooth="yes"/>
      <point x="79.3486328125" y="586.0"/>
      <point x="100.348632812" y="608.0"/>
      <point x="126.348632812" y="608.0" type="curve" smooth="yes"/>
      <point x="152.348632812" y="608.0"/>
      <point x="173.348632812" y="586.0"/>
      <point x="173.348632812" y="560.0" type="curve" smooth="yes"/>
      <point x="173.348632812" y="534.0"/>
      <point x="152.348632812" y="512.0"/>
      <point x="126.348632812" y="512.0" type="curve" smooth="yes"/>
      <point x="100.348632812" y="512.0"/>
      <point x="79.3486328125" y="534.0"/>
    </contour>
  </outline>
</glyph>
<glyph name="equal" format="2">
  <advance width="583"/>
  <unicode hex="003D"/>
  <outline>
    <contour>
      <point x="134.0" y="400.0" type="line" smooth="yes"/>
      <point x="171.0" y="438.0" type="line" smooth="yes"/>
      <point x="412.0" y="438.0" type="line" smooth="yes"/>
      <point x="445.0" y="400.0" type="line" smooth="yes"/>
      <point x="408.0" y="362.0" type="line" smooth="yes"/>
      <point x="167.0" y="362.0" type="line" smooth="yes"/>
    </contour>
    <contour>
      <point x="115.0" y="38.0" type="line" smooth="yes"/>
      <point x="152.0" y="76.0" type="line" smooth="yes"/>
      <point x="393.0" y="76.0" type="line" smooth="yes"/>
      <point x="426.0" y="38.0" type="line" smooth="yes"/>
      <point x="389.0" y="0.0" type="line" smooth="yes"/>
      <point x="148.0" y="0.0" type="line" smooth="yes"/>
    </contour>
  </outline>
</glyph>
<glyph name="greater" format="2">
  <advance width="583"/>
  <unicode hex="003E"/>
  <outline>
    <contour>
      <point x="134.0" y="400.0" type="line" smooth="yes"/>
      <point x="171.0" y="438.0" type="line" smooth="yes"/>
      <point x="412.0" y="438.0" type="line" smooth="yes"/>
      <point x="445.0" y="400.0" type="line" smooth="yes"/>
      <point x="408.0" y="362.0" type="line" smooth="yes"/>
      <point x="167.0" y="362.0" type="line" smooth="yes"/>
    </contour>
    <contour>
      <point x="453.0" y="414.0" type="line" smooth="yes"/>
      <point x="420.0" y="452.0" type="line" smooth="yes"/>
      <point x="433.0" y="710.0" type="line" smooth="yes"/>
      <point x="470.0" y="748.0" type="line" smooth="yes"/>
      <point x="504.0" y="710.0" type="line" smooth="yes"/>
      <point x="490.0" y="452.0" type="line" smooth="yes"/>
    </contour>
    <contour>
      <point x="464.0" y="762.0" type="line" smooth="yes"/>
      <point x="427.0" y="724.0" type="line" smooth="yes"/>
      <point x="186.0" y="724.0" type="line" smooth="yes"/>
      <point x="153.0" y="762.0" type="line" smooth="yes"/>
      <point x="190.0" y="800.0" type="line" smooth="yes"/>
      <point x="431.0" y="800.0" type="line" smooth="yes"/>
    </contour>
  </outline>
</glyph>
<glyph name="question" format="2">
  <advance width="583"/>
  <unicode hex="003F"/>
  <outline>
    <contour>
      <point x="134.0" y="400.0" type="line" smooth="yes"/>
      <point x="171.0" y="438.0" type="line" smooth="yes"/>
      <point x="412.0" y="438.0" type="line" smooth="yes"/>
      <point x="445.0" y="400.0" type="line" smooth="yes"/>
      <point x="408.0" y="362.0" type="line" smooth="yes"/>
      <point x="167.0" y="362.0" type="line" smooth="yes"/>
    </contour>
    <contour>
      <point x="104.0" y="52.0" type="line" smooth="yes"/>
      <point x="70.0" y="90.0" type="line" smooth="yes"/>
      <point x="84.0" y="348.0" type="line" smooth="yes"/>
      <point x="121.0" y="386.0" type="line" smooth="yes"/>
      <point x="154.0" y="348.0" type="line" smooth="yes"/>
      <point x="141.0" y="90.0" type="line" smooth="yes"/>
    </contour>
    <contour>
      <point x="453.0" y="414.0" type="line" smooth="yes"/>
      <point x="420.0" y="452.0" type="line" smooth="yes"/>
      <point x="433.0" y="710.0" type="line" smooth="yes"/>
      <point x="470.0" y="748.0" type="line" smooth="yes"/>
      <point x="504.0" y="710.0" type="line" smooth="yes"/>
      <point x="490.0" y="452.0" type="line" smooth="yes"/>
    </contour>
    <contour>
      <point x="509.92578125" y="762.0" type="line" smooth="yes"/>
      <point x="472.92578125" y="724.0" type="line" smooth="yes"/>
      <point x="231.92578125" y="724.0" type="line" smooth="yes"/>
      <point x="198.92578125" y="762.0" type="line" smooth="yes"/>
      <point x="235.92578125" y="800.0" type="line" smooth="yes"/>
      <point x="476.92578125" y="800.0" type="line" smooth="yes"/>
    </contour>
  </outline>
</glyph>
<glyph name="A" format="2">
  <advance width="583"/>
  <unicode hex="0041"/>
  <outline>
    <contour>
      <point x="134.0" y="400.0" type="line" smooth="yes"/>
      <point x="171.0" y="438.0" type="line" smooth="yes"/>
      <point x="412.0" y="438.0" type="line" smooth="yes"/>
      <point x="445.0" y="400.0" type="line" smooth="yes"/>
      <point x="408.0" y="362.0" type="line" smooth="yes"/>
      <point x="167.0" y="362.0" type="line" smooth="yes"/>
    </contour>
    <contour>
      <point x="123.0" y="414.0" type="line" smooth="yes"/>
      <point x="89.0" y="452.0" type="line" smooth="yes"/>
      <point x="103.0" y="710.0" type="line" smooth="yes"/>
      <point x="140.0" y="748.0" type="line" smooth="yes"/>
      <point x="173.0" y="710.0" type="line" smooth="yes"/>
      <point x="160.0" y="452.0" type="line" smooth="yes"/>
    </contour>
    <contour>
      <point x="104.0" y="52.0" type="line" smooth="yes"/>
      <point x="70.0" y="90.0" type="line" smooth="yes"/>
      <point x="84.0" y="348.0" type="line" smooth="yes"/>
      <point x="121.0" y="386.0" type="line" smooth="yes"/>
      <point x="154.0" y="348.0" type="line" smooth="yes"/>
      <point x="141.0" y="90.0" type="line" smooth="yes"/>
    </contour>
    <contour>
      <point x="434.0" y="52.0" type="line" smooth="yes"/>
      <point x="401.0" y="90.0" type="line" smooth="yes"/>
      <point x="414.0" y="348.0" type="line" smooth="yes"/>
      <point x="451.0" y="386.0" type="line" smooth="yes"/>
      <point x="485.0" y="348.0" type="line" smooth="yes"/>
      <point x="471.0" y="90.0" type="line" smooth="yes"/>
    </contour>
    <contour>
      <point x="453.0" y="414.0" type="line" smooth="yes"/>
      <point x="420.0" y="452.0" type="line" smooth="yes"/>
      <point x="433.0" y="710.0" type="line" smooth="yes"/>
      <point x="470.0" y="748.0" type="line" smooth="yes"/>
      <point x="504.0" y="710.0" type="line" smooth="yes"/>
      <point x="490.0" y="452.0" type="line" smooth="yes"/>
    </contour>
    <contour>
      <point x="464.0" y="762.0" type="line" smooth="yes"/>
      <point x="427.0" y="724.0" type="line" smooth="yes"/>
      <point x="186.0" y="724.0" type="line" smooth="yes"/>
      <point x="153.0" y="762.0" type="line" smooth="yes"/>
      <point x="190.0" y="800.0" type="line" smooth="yes"/>
      <point x="431.0" y="800.0" type="line" smooth="yes"/>
    </contour>
  </outline>
</glyph>
<glyph name="G" format="2">
  <advance width="583"/>
  <unicode hex="0047"/>
  <outline>
    <contour>
      <point x="123.0" y="414.0" type="line" smooth="yes"/>
      <point x="89.0" y="452.0" type="line" smooth="yes"/>
      <point x="103.0" y="710.0" type="line" smooth="yes"/>
      <point x="140.0" y="748.0" type="line" smooth="yes"/>
      <point x="173.0" y="710.0" type="line" smooth="yes"/>
      <point x="160.0" y="452.0" type="line" smooth="yes"/>
    </contour>
    <contour>
      <point x="104.0" y="52.0" type="line" smooth="yes"/>
      <point x="70.0" y="90.0" type="line" smooth="yes"/>
      <point x="84.0" y="348.0" type="line" smooth="yes"/>
      <point x="121.0" y="386.0" type="line" smooth="yes"/>
      <point x="154.0" y="348.0" type="line" smooth="yes"/>
      <point x="141.0" y="90.0" type="line" smooth="yes"/>
    </contour>
    <contour>
      <point x="115.0" y="38.0" type="line" smooth="yes"/>
      <point x="152.0" y="76.0" type="line" smooth="yes"/>
      <point x="393.0" y="76.0" type="line" smooth="yes"/>
      <point x="426.0" y="38.0" type="line" smooth="yes"/>
      <point x="389.0" y="0.0" type="line" smooth="yes"/>
      <point x="148.0" y="0.0" type="line" smooth="yes"/>
    </contour>
    <contour>
      <point x="434.0" y="52.0" type="line" smooth="yes"/>
      <point x="401.0" y="90.0" type="line" smooth="yes"/>
      <point x="414.0" y="348.0" type="line" smooth="yes"/>
      <point x="451.0" y="386.0" type="line" smooth="yes"/>
      <point x="485.0" y="348.0" type="line" smooth="yes"/>
      <point x="471.0" y="90.0" type="line" smooth="yes"/>
    </contour>
    <contour>
      <point x="509.92578125" y="762.0" type="line" smooth="yes"/>
      <point x="472.92578125" y="724.0" type="line" smooth="yes"/>
      <point x="231.92578125" y="724.0" type="line" smooth="yes"/>
      <point x="198.92578125" y="762.0" type="line" smooth="yes"/>
      <point x="235.92578125" y="800.0" type="line" smooth="yes"/>
      <point x="476.92578125" y="800.0" type="line" smooth="yes"/>
    </contour>
  </outline>
</glyph>
<glyph name="W" format="2">
  <advance width="583"/>
  <unicode hex="0057"/>
  <outline>
    <contour>
      <point x="113.0" y="52.0" type="line" smooth="yes"/>
      <point x="77.0" y="90.0" type="line" smooth="yes"/>
      <point x="90.0" y="348.0" type="line" smooth="yes"/>
      <point x="130.0" y="386.0" type="line" smooth="yes"/>
      <point x="166.0" y="348.0" type="line" smooth="yes"/>
      <point x="153.0" y="90.0" type="line" smooth="yes"/>
    </contour>
    <contour>
      <point x="126.0" y="38.0" type="line" smooth="yes"/>
      <point x="166.0" y="76.0" type="line" smooth="yes"/>
      <point x="425.0" y="76.0" type="line" smooth="yes"/>
      <point x="461.0" y="38.0" type="line" smooth="yes"/>
      <point x="421.0" y="0.0" type="line" smooth="yes"/>
      <point x="162.0" y="0.0" type="line" smooth="yes"/>
    </contour>
    <contour>
      <point x="476.0" y="52.0" type="line" smooth="yes"/>
      <point x="440.0" y="90.0" type="line" smooth="yes"/>
      <point x="453.0" y="348.0" type="line" smooth="yes"/>
      <point x="493.0" y="386.0" type="line" smooth="yes"/>
      <point x="529.0" y="348.0" type="line" smooth="yes"/>
      <point x="516.0" y="90.0" type="line" smooth="yes"/>
    </contour>
    <contour>
      <point x="499.0" y="762.0" type="line" smooth="yes"/>
      <point x="459.0" y="724.0" type="line" smooth="yes"/>
      <point x="200.0" y="724.0" type="line" smooth="yes"/>
      <point x="164.0" y="762.0" type="line" smooth="yes"/>
      <point x="204.0" y="800.0" type="line" smooth="yes"/>
      <point x="463.0" y="800.0" type="line" smooth="yes"/>
    </contour>
  </outline>
</glyph>
<glyph name="j" format="2">
  <advance width="583"/>
  <unicode hex="006A"/>
  <outline>
    <contour>
      <point x="122.0" y="38.0" type="line" smooth="yes"/>
      <point x="158.0" y="76.0" type="line" smooth="yes"/>
      <point x="417.0" y="76.0" type="line" smooth="yes"/>
      <point x="457.0" y="38.0" type="line" smooth="yes"/>
      <point x="421.0" y="0.0" type="line" smooth="yes"/>
      <point x="162.0" y="0.0" type="line" smooth="yes"/>
    </contour>
    <contour>
      <point x="470.0" y="52.0" type="line" smooth="yes"/>
      <point x="430.0" y="90.0" type="line" smooth="yes"/>
      <point x="417.0" y="348.0" type="line" smooth="yes"/>
      <point x="453.0" y="386.0" type="line" smooth="yes"/>
      <point x="493.0" y="348.0" type="line" smooth="yes"/>
      <point x="506.0" y="90.0" type="line" smooth="yes"/>
    </contour>
    <contour>
      <point x="451.0" y="414.0" type="line" smooth="yes"/>
      <point x="411.0" y="452.0" type="line" smooth="yes"/>
      <point x="398.0" y="710.0" type="line" smooth="yes"/>
      <point x="434.0" y="748.0" type="line" smooth="yes"/>
      <point x="474.0" y="710.0" type="line" smooth="yes"/>
      <point x="487.0" y="452.0" type="line" smooth="yes"/>
    </contour>
  </outline>
</glyph>
<glyph name="r" format="2">
  <advance width="583"/>
  <unicode hex="0072"/>
  <outline>
    <contour>
      <point x="103.0" y="400.0" type="line" smooth="yes"/>
      <point x="139.0" y="438.0" type="line" smooth="yes"/>
      <point x="398.0" y="438.0" type="line" smooth="yes"/>
      <point x="438.0" y="400.0" type="line" smooth="yes"/>
      <point x="402.0" y="362.0" type="line" smooth="yes"/>
      <point x="143.0" y="362.0" type="line" smooth="yes"/>
    </contour>
    <contour>
      <point x="107.0" y="52.0" type="line" smooth="yes"/>
      <point x="67.0" y="90.0" type="line" smooth="yes"/>
      <point x="54.0" y="348.0" type="line" smooth="yes"/>
      <point x="90.0" y="386.0" type="line" smooth="yes"/>
      <point x="130.0" y="348.0" type="line" smooth="yes"/>
      <point x="143.0" y="90.0" type="line" smooth="yes"/>
    </contour>
  </outline>
</glyph>
<glyph name="u" format="2">
  <advance width="583"/>
  <unicode hex="0075"/>
  <outline>
    <contour>
      <point x="113.0" y="52.0" type="line" smooth="yes"/>
      <point x="77.0" y="90.0" type="line" smooth="yes"/>
      <point x="90.0" y="348.0" type="line" smooth="yes"/>
      <point x="130.0" y="386.0" type="line" smooth="yes"/>
      <point x="166.0" y="348.0" type="line" smooth="yes"/>
      <point x="153.0" y="90.0" type="line" smooth="yes"/>
    </contour>
    <contour>
      <point x="126.0" y="38.0" type="line" smooth="yes"/>
      <point x="166.0" y="76.0" type="line" smooth="yes"/>
      <point x="425.0" y="76.0" type="line" smooth="yes"/>
      <point x="461.0" y="38.0" type="line" smooth="yes"/>
      <point x="421.0" y="0.0" type="line" smooth="yes"/>
      <point x="162.0" y="0.0" type="line" smooth="yes"/>
    </contour>
    <contour>
      <point x="476.0" y="52.0" type="line" smooth="yes"/>
      <point x="440.0" y="90.0" type="line" smooth="yes"/>
      <point x="453.0" y="348.0" type="line" smooth="yes"/>
      <point x="493.0" y="386.0" type="line" smooth="yes"/>
      <point x="529.0" y="348.0" type="line" smooth="yes"/>
      <point x="516.0" y="90.0" type="line" smooth="yes"/>
    </contour>
  </outline>
</glyph>
<glyph name="asciitilde" format="2">
  <advance width="583"/>
  <unicode hex="007E"/>
  <outline>
    <contour>
      <point x="419.0" y="762.0" type="line" smooth="yes"/>
      <point x="383.0" y="724.0" type="line" smooth="yes"/>
      <point x="124.0" y="724.0" type="line" smooth="yes"/>
      <point x="84.0" y="762.0" type="line" smooth="yes"/>
      <point x="120.0" y="800.0" type="line" smooth="yes"/>
      <point x="379.0" y="800.0" type="line" smooth="yes"/>
    </contour>
  </outline>
</glyph>
<glyph name="degree" format="2">
  <advance width="583"/>
  <unicode hex="00B0"/>
  <outline>
    <contour>
      <point x="134.0" y="400.0" type="line" smooth="yes"/>
      <point x="171.0" y="438.0" type="line" smooth="yes"/>
      <point x="412.0" y="438.0" type="line" smooth="yes"/>
      <point x="445.0" y="400.0" type="line" smooth="yes"/>
      <point x="408.0" y="362.0" type="line" smooth="yes"/>
      <point x="167.0" y="362.0" type="line" smooth="yes"/>
    </contour>
    <contour>
      <point x="123.0" y="414.0" type="line" smooth="yes"/>
      <point x="89.0" y="452.0" type="line" smooth="yes"/>
      <point x="103.0" y="710.0" type="line" smooth="yes"/>
      <point x="140.0" y="748.0" type="line" smooth="yes"/>
      <point x="173.0" y="710.0" type="line" smooth="yes"/>
      <point x="160.0" y="452.0" type="line" smooth="yes"/>
    </contour>
    <contour>
      <point x="453.0" y="414.0" type="line" smooth="yes"/>
      <point x="420.0" y="452.0" type="line" smooth="yes"/>
      <point x="433.0" y="710.0" type="line" smooth="yes"/>
      <point x="470.0" y="748.0" type="line" smooth="yes"/>
      <point x="504.0" y="710.0" type="line" smooth="yes"/>
      <point x="490.0" y="452.0" type="line" smooth="yes"/>
    </contour>
    <contour>
      <point x="509.92578125" y="762.0" type="line" smooth="yes"/>
      <point x="472.92578125" y="724.0" type="line" smooth="yes"/>
      <point x="231.92578125" y="724.0" type="line" smooth="yes"/>
      <point x="198.92578125" y="762.0" type="line" smooth="yes"/>
      <point x="235.92578125" y="800.0" type="line" smooth="yes"/>
      <point x="476.92578125" y="800.0" type="line" smooth="yes"/>
    </contour>
  </outline>
</glyph>
<glyph name="quoteleft" format="2">
  <advance width="583"/>
  <unicode hex="2018"/>
  <outline>
    <contour>
      <point x="453.0" y="414.0" type="line" smooth="yes"/>
      <point x="420.0" y="452.0" type="line" smooth="yes"/>
      <point x="433.0" y="710.0" type="line" smooth="yes"/>
      <point x="470.0" y="748.0" type="line" smooth="yes"/>
      <point x="504.0" y="710.0" type="line" smooth="yes"/>
      <point x="490.0" y="452.0" type="line" smooth="yes"/>
    </contour>
  </outline>
</glyph>
<glyph name="ellipsis" format="2">
  <advance width="583"/>
  <unicode hex="2026"/>
  <outline>
    <contour>
      <point x="536.0" y="0.0" type="curve" smooth="yes"/>
      <point x="535.0" y="26.0"/>
      <point x="554.0" y="48.0"/>
      <point x="580.0" y="48.0" type="curve" smooth="yes"/>
      <point x="606.0" y="48.0"/>
      <point x="629.0" y="26.0"/>
      <point x="630.0" y="0.0" type="curve" smooth="yes"/>
      <point x="631.0" y="-26.0"/>
      <point x="612.0" y="-48.0"/>
      <point x="586.0" y="-48.0" type="curve" smooth="yes"/>
      <point x="560.0" y="-48.0"/>
      <point x="537.0" y="-26.0"/>
    </contour>
    <contour>
      <point x="107.0" y="52.0" type="line" smooth="yes"/>
      <point x="67.0" y="90.0" type="line" smooth="yes"/>
      <point x="54.0" y="348.0" type="line" smooth="yes"/>
      <point x="90.0" y="386.0" type="line" smooth="yes"/>
      <point x="130.0" y="348.0" type="line" smooth="yes"/>
      <point x="143.0" y="90.0" type="line" smooth="yes"/>
    </contour>
    <contour>
      <point x="470.0" y="52.0" type="line" smooth="yes"/>
      <point x="430.0" y="90.0" type="line" smooth="yes"/>
      <point x="417.0" y="348.0" type="line" smooth="yes"/>
      <point x="453.0" y="386.0" type="line" smooth="yes"/>
      <point x="493.0" y="348.0" type="line" smooth="yes"/>
      <point x="506.0" y="90.0" type="line" smooth="yes"/>
    </contour>
  </outline>
</glyph>
<glyph name="unie000" format="2">
  <advance width="583"/>
  <unicode hex="E000"/>
  <outline>
    <contour>
      <point x="536.0" y="0.0" type="curve" smooth="yes"/>
      <point x="536.0" y="26.0"/>
      <point x="557.0" y="48.0"/>
      <point x="583.0" y="48.0" type="curve" smooth="yes"/>
      <point x="609.0" y="48.0"/>
      <point x="630.0" y="26.0"/>
      <point x="630.0" y="0.0" type="curve" smooth="yes"/>
      <point x="630.0" y="-26.0"/>
      <point x="609.0" y="-48.0"/>
      <point x="583.0" y="-48.0" type="curve" smooth="yes"/>
      <point x="557.0" y="-48.0"/>
      <point x="536.0" y="-26.0"/>
    </contour>
    <contour>
      <point x="145.0" y="400.0" type="line" smooth="yes"/>
      <point x="185.0" y="438.0" type="line" smooth="yes"/>
      <point x="444.0" y="438.0" type="line" smooth="yes"/>
      <point x="480.0" y="400.0" type="line" smooth="yes"/>
      <point x="440.0" y="362.0" type="line" smooth="yes"/>
      <point x="181.0" y="362.0" type="line" smooth="yes"/>
    </contour>
    <contour>
      <point x="132.0" y="414.0" type="line" smooth="yes"/>
      <point x="96.0" y="452.0" type="line" smooth="yes"/>
      <point x="109.0" y="710.0" type="line" smooth="yes"/>
      <point x="149.0" y="748.0" type="line" smooth="yes"/>
      <point x="185.0" y="710.0" type="line" smooth="yes"/>
      <point x="172.0" y="452.0" type="line" smooth="yes"/>
    </contour>
    <contour>
      <point x="113.0" y="52.0" type="line" smooth="yes"/>
      <point x="77.0" y="90.0" type="line" smooth="yes"/>
      <point x="90.0" y="348.0" type="line" smooth="yes"/>
      <point x="130.0" y="386.0" type="line" smooth="yes"/>
      <point x="166.0" y="348.0" type="line" smooth="yes"/>
      <point x="153.0" y="90.0" type="line" smooth="yes"/>
    </contour>
    <contour>
      <point x="126.0" y="38.0" type="line" smooth="yes"/>
      <point x="166.0" y="76.0" type="line" smooth="yes"/>
      <point x="425.0" y="76.0" type="line" smooth="yes"/>
      <point x="461.0" y="38.0" type="line" smooth="yes"/>
      <point x="421.0" y="0.0" type="line" smooth="yes"/>
      <point x="162.0" y="0.0" type="line" smooth="yes"/>
    </contour>
    <contour>
      <point x="476.0" y="52.0" type="line" smooth="yes"/>
      <point x="440.0" y="90.0" type="line" smooth="yes"/>
      <point x="453.0" y="348.0" type="line" smooth="yes"/>
      <point x="493.0" y="386.0" type="line" smooth="yes"/>
      <point x="529.0" y="348.0" type="line" smooth="yes"/>
      <point x="516.0" y="90.0" type="line" smooth="yes"/>
    </contour>
    <contour>
      <point x="495.0" y="414.0" type="line" smooth="yes"/>
      <point x="459.0" y="452.0" type="line" smooth="yes"/>
      <point x="472.0" y="710.0" type="line" smooth="yes"/>
      <point x="512.0" y="748.0" type="line" smooth="yes"/>
      <point x="548.0" y="710.0" type="line" smooth="yes"/>
      <point x="535.0" y="452.0" type="line" smooth="yes"/>
    </contour>
    <contour>
      <point x="499.0" y="762.0" type="line" smooth="yes"/>
      <point x="459.0" y="724.0" type="line" smooth="yes"/>
      <point x="200.0" y="724.0" type="line" smooth="yes"/>
      <point x="164.0" y="762.0" type="line" smooth="yes"/>
      <point x="204.0" y="800.0" type="line" smooth="yes"/>
      <point x="463.0" y="800.0" type="line" smooth="yes"/>
    </contour>
  </outline>
</glyph>
<glyph name="unie650" format="2">
  <advance width="583"/>
  <unicode hex="E650"/>
  <outline>
    <contour>
      <point x="123.0" y="414.0" type="line" smooth="yes"/>
      <point x="89.0" y="452.0" type="line" smooth="yes"/>
      <point x="103.0" y="710.0" type="line" smooth="yes"/>
      <point x="140.0" y="748.0" type="line" smooth="yes"/>
      <point x="173.0" y="710.0" type="line" smooth="yes"/>
      <point x="160.0" y="452.0" type="line" smooth="yes"/>
    </contour>
    <contour>
      <point x="434.0" y="52.0" type="line" smooth="yes"/>
      <point x="401.0" y="90.0" type="line" smooth="yes"/>
      <point x="414.0" y="348.0" type="line" smooth="yes"/>
      <point x="451.0" y="386.0" type="line" smooth="yes"/>
      <point x="485.0" y="348.0" type="line" smooth="yes"/>
      <point x="471.0" y="90.0" type="line" smooth="yes"/>
    </contour>
    <contour>
      <point x="453.0" y="414.0" type="line" smooth="yes"/>
      <point x="420.0" y="452.0" type="line" smooth="yes"/>
      <point x="433.0" y="710.0" type="line" smooth="yes"/>
      <point x="470.0" y="748.0" type="line" smooth="yes"/>
      <point x="504.0" y="710.0" type="line" smooth="yes"/>
      <point x="490.0" y="452.0" type="line" smooth="yes"/>
    </contour>
    <contour>
      <point x="464.0" y="762.0" type="line" smooth="yes"/>
      <point x="427.0" y="724.0" type="line" smooth="yes"/>
      <point x="186.0" y="724.0" type="line" smooth="yes"/>
      <point x="153.0" y="762.0" type="line" smooth="yes"/>
      <point x="190.0" y="800.0" type="line" smooth="yes"/>
      <point x="431.0" y="800.0" type="line" smooth="yes"/>
    </contour>
  </outline>
</glyph>
<glyph name="unie655" format="2">
  <advance width="583"/>
  <unicode hex="E655"/>
  <outline>
    <contour>
      <point x="103.0" y="400.0" type="line" smooth="yes"/>
      <point x="139.0" y="438.0" type="line" smooth="yes"/>
      <point x="398.0" y="438.0" type="line" smooth="yes"/>
      <point x="438.0" y="400.0" type="line" smooth="yes"/>
      <point x="402.0" y="362.0" type="line" smooth="yes"/>
      <point x="143.0" y="362.0" type="line" smooth="yes"/>
    </contour>
    <contour>
      <point x="88.0" y="414.0" type="line" smooth="yes"/>
      <point x="48.0" y="452.0" type="line" smooth="yes"/>
      <point x="35.0" y="710.0" type="line" smooth="yes"/>
      <point x="71.0" y="748.0" type="line" smooth="yes"/>
      <point x="111.0" y="710.0" type="line" smooth="yes"/>
      <point x="124.0" y="452.0" type="line" smooth="yes"/>
    </contour>
    <contour>
      <point x="470.0" y="52.0" type="line" smooth="yes"/>
      <point x="430.0" y="90.0" type="line" smooth="yes"/>
      <point x="417.0" y="348.0" type="line" smooth="yes"/>
      <point x="453.0" y="386.0" type="line" smooth="yes"/>
      <point x="493.0" y="348.0" type="line" smooth="yes"/>
      <point x="506.0" y="90.0" type="line" smooth="yes"/>
    </contour>
    <contour>
      <point x="419.0" y="762.0" type="line" smooth="yes"/>
      <point x="383.0" y="724.0" type="line" smooth="yes"/>
      <point x="124.0" y="724.0" type="line" smooth="yes"/>
      <point x="84.0" y="762.0" type="line" smooth="yes"/>
      <point x="120.0" y="800.0" type="line" smooth="yes"/>
      <point x="379.0" y="800.0" type="line" smooth="yes"/>
    </contour>
  </outline>
</glyph>
<glyph name="unie662" format="2">
  <advance width="583"/>
  <unicode hex="E662"/>
  <outline>
    <contour>
      <point x="123.0" y="414.0" type="line" smooth="yes"/>
      <point x="89.0" y="452.0" type="line" smooth="yes"/>
      <point x="103.0" y="710.0" type="line" smooth="yes"/>
      <point x="140.0" y="748.0" type="line" smooth="yes"/>
      <point x="173.0" y="710.0" type="line" smooth="yes"/>
      <point x="160.0" y="452.0" type="line" smooth="yes"/>
    </contour>
    <contour>
      <point x="104.0" y="52.0" type="line" smooth="yes"/>
      <point x="70.0" y="90.0" type="line" smooth="yes"/>
      <point x="84.0" y="348.0" type="line" smooth="yes"/>
      <point x="121.0" y="386.0" type="line" smooth="yes"/>
      <point x="154.0" y="348.0" type="line" smooth="yes"/>
      <point x="141.0" y="90.0" type="line" smooth="yes"/>
    </contour>
    <contour>
      <point x="509.92578125" y="762.0" type="line" smooth="yes"/>
      <point x="472.92578125" y="724.0" type="line" smooth="yes"/>
      <point x="231.92578125" y="724.0" type="line" smooth="yes"/>
      <point x="198.92578125" y="762.0" type="line" smooth="yes"/>
      <point x="235.92578125" y="800.0" type="line" smooth="yes"/>
      <point x="476.92578125" y="800.0" type="line" smooth="yes"/>
    </contour>
  </outline>
</glyph>
<glyph name="unie671" format="2">
  <advance width="583"/>
  <unicode hex="E671"/>
  <outline>
    <contour>
      <point x="113.0" y="52.0" type="line" smooth="yes"/>
      <point x="77.0" y="90.0" type="line" smooth="yes"/>
      <point x="90.0" y="348.0" type="line" smooth="yes"/>
      <point x="130.0" y="386.0" type="line" smooth="yes"/>
      <point x="166.0" y="348.0" type="line" smooth="yes"/>
      <point x="153.0" y="90.0" type="line" smooth="yes"/>
    </contour>
    <contour>
      <point x="476.0" y="52.0" type="line" smooth="yes"/>
      <point x="440.0" y="90.0" type="line" smooth="yes"/>
      <point x="453.0" y="348.0" type="line" smooth="yes"/>
      <point x="493.0" y="386.0" type="line" smooth="yes"/>
      <point x="529.0" y="348.0" type="line" smooth="yes"/>
      <point x="516.0" y="90.0" type="line" smooth="yes"/>
    </contour>
  </outline>
</glyph>
<glyph name="unie672" format="2">
  <advance width="583"/>
  <unicode hex="E672"/>
  <outline>
    <contour>
      <point x="104.0" y="52.0" type="line" smooth="yes"/>
      <point x="70.0" y="90.0" type="line" smooth="yes"/>
      <point x="84.0" y="348.0" type="line" smooth="yes"/>
      <point x="121.0" y="386.0" type="line" smooth="yes"/>
      <point x="154.0" y="348.0" type="line" smooth="yes"/>
      <point x="141.0" y="90.0" type="line" smooth="yes"/>
    </contour>
    <contour>
      <point x="115.0" y="38.0" type="line" smooth="yes"/>
      <point x="152.0" y="76.0" type="line" smooth="yes"/>
      <point x="393.0" y="76.0" type="line" smooth="yes"/>
      <point x="426.0" y="38.0" type="line" smooth="yes"/>
      <point x="389.0" y="0.0" type="line" smooth="yes"/>
      <point x="148.0" y="0.0" type="line" smooth="yes"/>
    </contour>
  </outline>
</glyph>
<glyph name="u1047e" format="2">
  <advance width="583"/>
  <unicode hex="1047E"/>
  <outline>
    <contour>
      <point x="145.0" y="400.0" type="line" smooth="yes"/>
      <point x="185.0" y="438.0" type="line" smooth="yes"/>
      <point x="444.0" y="438.0" type="line" smooth="yes"/>
      <point x="480.0" y="400.0" type="line" smooth="yes"/>
      <point x="440.0" y="362.0" type="line" smooth="yes"/>
      <point x="181.0" y="362.0" type="line" smooth="yes"/>
    </contour>
    <contour>
      <point x="113.0" y="52.0" type="line" smooth="yes"/>
      <point x="77.0" y="90.0" type="line" smooth="yes"/>
      <point x="90.0" y="348.0" type="line" smooth="yes"/>
      <point x="130.0" y="386.0" type="line" smooth="yes"/>
      <point x="166.0" y="348.0" type="line" smooth="yes"/>
      <point x="153.0" y="90.0" type="line" smooth="yes"/>
    </contour>
    <contour>
      <point x="499.0" y="762.0" type="line" smooth="yes"/>
      <point x="459.0" y="724.0" type="line" smooth="yes"/>
      <point x="200.0" y="724.0" type="line" smooth="yes"/>
      <point x="164.0" y="762.0" type="line" smooth="yes"/>
      <point x="204.0" y="800.0" type="line" smooth="yes"/>
      <point x="463.0" y="800.0" type="line" smooth="yes"/>
    </contour>
  </outline>
</glyph>
<glyph name=".notdef" format="2">
  <advance width="583"/>
  <outline>
    <contour>
      <point x="148.0" y="76.0" type="line" smooth="yes"/>
      <point x="434.0" y="76.0" type="line" smooth="yes"/>
      <point x="434.0" y="724.0" type="line" smooth="yes"/>
      <point x="148.0" y="724.0" type="line" smooth="yes"/>
    </contour>
    <contour>
      <point x="72.0" y="0.0" type="line" smooth="yes"/>
      <point x="72.0" y="800.0" type="line" smooth="yes"/>
      <point x="510.0" y="800.0" type="line" smooth="yes"/>
      <point x="510.0" y="0.0" type="line" smooth="yes"/>
    </contour>
  </outline>
</glyph>
